<svg width="63" height="82" viewBox="0 0 63 82" fill="none" xmlns="http://www.w3.org/2000/svg">
<path d="M35.5795 81.7376C35.334 81.7394 35.0923 81.6765 34.8788 81.5552L26.325 76.6227C26.1114 76.5001 25.9339 76.3232 25.8105 76.1101C25.6872 75.8969 25.6223 75.6549 25.6224 75.4086V56.481L0.705545 42.0838C0.492561 41.9606 0.315713 41.7835 0.192735 41.5704C0.0697568 41.3573 0.0049756 41.1156 0.00488281 40.8696V11.2717C0.00516987 11.0256 0.0701684 10.784 0.193357 10.5709C0.316547 10.3579 0.493595 10.181 0.706738 10.058C0.919881 9.93498 1.16163 9.87019 1.40771 9.87012C1.6538 9.87004 1.89558 9.93469 2.1088 10.0576L10.6512 14.9881C10.8636 15.1117 11.0398 15.2889 11.1621 15.502C11.2844 15.7151 11.3485 15.9566 11.348 16.2023V35.1299L25.6406 43.3728V16.2023C25.6406 15.9561 25.7053 15.7141 25.8284 15.5008C25.9514 15.2875 26.1284 15.1104 26.3416 14.9871C26.5548 14.8639 26.7967 14.7989 27.043 14.7988C27.2892 14.7986 27.5312 14.8633 27.7445 14.9862L36.2869 19.9168C36.5005 20.0399 36.6779 20.2171 36.8013 20.4306C36.9246 20.6441 36.9895 20.8863 36.9895 21.1329V80.3353C36.989 80.7073 36.841 81.064 36.5779 81.327C36.3149 81.5901 35.9582 81.7381 35.5862 81.7386L35.5795 81.7376ZM28.4356 74.5927L34.1772 77.8993V21.942L28.4385 18.6297V45.8021C28.4382 46.0482 28.3732 46.2899 28.25 46.5029C28.1268 46.7159 27.9498 46.8928 27.7366 47.0158C27.5235 47.1388 27.2817 47.2036 27.0357 47.2037C26.7896 47.2038 26.5478 47.1391 26.3346 47.0163L9.24599 37.1522C9.03301 37.029 8.85616 36.852 8.73318 36.6389C8.6102 36.4258 8.54542 36.1841 8.54533 35.9381V17.0105L2.80467 13.7001V40.0605L27.7388 54.4577C27.9518 54.5814 28.1286 54.7588 28.2515 54.9722C28.3745 55.1856 28.4393 55.4275 28.4394 55.6738L28.4356 74.5927Z" fill="#343B86"/>
<path d="M35.5795 81.7376C35.2079 81.7366 34.8517 81.5884 34.5891 81.3254C34.3265 81.0624 34.1787 80.7061 34.1782 80.3344V21.1387C34.1782 20.8921 34.2431 20.6499 34.3664 20.4364C34.4898 20.2229 34.6672 20.0457 34.8808 19.9226L60.5137 5.12318C60.7271 5.00084 60.9689 4.93669 61.215 4.93714C61.461 4.93758 61.7026 5.00262 61.9156 5.12574C62.1286 5.24886 62.3055 5.42574 62.4287 5.63871C62.5519 5.85167 62.617 6.09324 62.6176 6.33927V16.2062C62.6175 16.4522 62.5527 16.6939 62.4297 16.907C62.3067 17.1201 62.1299 17.2972 61.9169 17.4203L45.5367 26.8841V43.3747L60.5242 34.723C60.7376 34.6 60.9795 34.5354 61.2258 34.5355C61.472 34.5357 61.7139 34.6006 61.9271 34.7239C62.1403 34.8471 62.3173 35.0243 62.4404 35.2376C62.5634 35.4509 62.6282 35.6928 62.6281 35.939V45.804C62.6282 46.0504 62.5635 46.2924 62.4405 46.5058C62.3175 46.7193 62.1406 46.8966 61.9275 47.0201L45.5482 56.4839V75.4115C45.5483 75.6578 45.4834 75.8998 45.36 76.113C45.2367 76.3261 45.0592 76.503 44.8456 76.6256L36.3032 81.5572C36.0826 81.6813 35.8326 81.7436 35.5795 81.7376ZM36.9809 21.9478V77.8993L42.7196 74.587V55.6594C42.7196 55.4129 42.7845 55.1707 42.9078 54.9572C43.0312 54.7437 43.2086 54.5664 43.4222 54.4433L59.8024 44.9796V38.3664L44.813 47.0201C44.5996 47.1431 44.3577 47.2077 44.1114 47.2076C43.8652 47.2074 43.6233 47.1425 43.4101 47.0192C43.1969 46.896 43.0199 46.7188 42.8968 46.5055C42.7738 46.2922 42.709 46.0503 42.7091 45.804V26.0702C42.7091 25.8237 42.7741 25.5815 42.8974 25.368C43.0207 25.1545 43.1981 24.9773 43.4117 24.8541L59.7928 15.3932V8.77049L36.9809 21.9478Z" fill="#343B86"/>
<path d="M35.5774 22.54C35.3318 22.5419 35.0901 22.479 34.8767 22.3577L26.3343 17.4223C26.1208 17.2994 25.9435 17.1225 25.8201 16.9092C25.6968 16.696 25.6318 16.454 25.6318 16.2076C25.6318 15.9613 25.6968 15.7193 25.8201 15.506C25.9435 15.2928 26.1208 15.1158 26.3343 14.993L51.9682 0.186856C52.1814 0.064425 52.4229 0 52.6688 0C52.9147 0 53.1563 0.064425 53.3695 0.186856L61.9119 5.11935C62.1254 5.2422 62.3028 5.41917 62.4261 5.63242C62.5494 5.84566 62.6143 6.08766 62.6143 6.334C62.6143 6.58034 62.5494 6.82234 62.4261 7.03558C62.3028 7.24883 62.1254 7.4258 61.9119 7.54865L36.278 22.3519C36.0655 22.4766 35.8238 22.5428 35.5774 22.5439V22.54ZM29.8386 16.2052L35.5774 19.5176L58.4085 6.34024L52.6688 3.02599L29.8386 16.2052Z" fill="#343B86"/>
<path d="M9.93881 17.6037C9.69339 17.6048 9.45191 17.5419 9.23814 17.4214L0.700581 12.486C0.487543 12.3627 0.310666 12.1856 0.187698 11.9724C0.0647314 11.7592 0 11.5174 0 11.2713C0 11.0252 0.0647314 10.7834 0.187698 10.5702C0.310666 10.357 0.487543 10.1799 0.700581 10.0567L9.25447 5.12227C9.46801 4.99976 9.7099 4.9353 9.95609 4.9353C10.2023 4.9353 10.4442 4.99976 10.6577 5.12227L19.2116 10.0567C19.4246 10.1799 19.6015 10.357 19.7245 10.5702C19.8475 10.7834 19.9122 11.0252 19.9122 11.2713C19.9122 11.5174 19.8475 11.7592 19.7245 11.9724C19.6015 12.1856 19.4246 12.3627 19.2116 12.486L10.6577 17.4166C10.439 17.5419 10.1908 17.6065 9.93881 17.6037ZM4.20391 11.2689L9.94073 14.5793L15.6824 11.2689L9.94361 7.95661L4.20391 11.2689Z" fill="#343B86"/>
<path d="M9.94478 37.3404C9.57312 37.3404 9.21669 37.1928 8.95389 36.93C8.69109 36.6672 8.54346 36.3107 8.54346 35.9391V16.2024C8.54336 15.9563 8.60806 15.7145 8.73105 15.5014C8.85405 15.2882 9.031 15.1112 9.24412 14.9882L17.798 10.0576C18.0111 9.9346 18.2528 9.86985 18.4988 9.86987C18.7448 9.8699 18.9865 9.9347 19.1996 10.0578C19.4126 10.1808 19.5895 10.3578 19.7125 10.5709C19.8354 10.784 19.9001 11.0257 19.9 11.2718V31.0085C19.8999 31.2548 19.8349 31.4967 19.7116 31.7098C19.5882 31.923 19.4109 32.0999 19.1974 32.2227L10.6551 37.1532C10.4393 37.2795 10.1938 37.3458 9.94383 37.3452L9.94478 37.3404ZM11.3461 17.0134V33.5088L17.0848 30.1965V13.702L11.3461 17.0134Z" fill="#343B86"/>
<path d="M27.0343 47.2054C26.7887 47.2072 26.5471 47.1443 26.3336 47.023L9.24502 37.1599C9.03198 37.0367 8.8551 36.8596 8.73213 36.6464C8.60916 36.4332 8.54443 36.1914 8.54443 35.9453C8.54443 35.6992 8.60916 35.4574 8.73213 35.2442C8.8551 35.031 9.03198 34.8539 9.24502 34.7306L17.7874 29.8001C17.9999 29.6777 18.2409 29.6133 18.4861 29.6133C18.7314 29.6133 18.9723 29.6777 19.1849 29.8001L27.7388 34.6903C27.9532 34.8133 28.1315 34.9906 28.2555 35.2045C28.3796 35.4183 28.445 35.6611 28.4452 35.9083V45.8117C28.4447 46.1837 28.2967 46.5404 28.0336 46.8034C27.7706 47.0665 27.4139 47.2145 27.0419 47.215L27.0343 47.2054ZM12.7512 35.9381L25.6387 43.3728V36.7117L18.4967 32.6239L12.7512 35.9381Z" fill="#343B86"/>
<path d="M44.1215 47.2073C43.7494 47.2073 43.3924 47.0594 43.1292 46.7963C42.8661 46.5331 42.7183 46.1762 42.7183 45.804V35.8949C42.7181 35.6476 42.7833 35.4046 42.9074 35.1907C43.0315 34.9768 43.2099 34.7995 43.4247 34.6769L51.967 29.7818C52.1797 29.6597 52.4206 29.5955 52.6658 29.5955C52.911 29.5955 53.1519 29.6597 53.3645 29.7818L61.9184 34.7143C62.132 34.8371 62.3093 35.0141 62.4327 35.2274C62.556 35.4406 62.6209 35.6826 62.6209 35.9289C62.6209 36.1753 62.556 36.4173 62.4327 36.6305C62.3093 36.8438 62.132 37.0207 61.9184 37.1436L44.8298 47.0163C44.6146 47.1411 44.3703 47.207 44.1215 47.2073ZM45.5247 36.7078V43.3747L58.4065 35.9381L52.6629 32.6219L45.5247 36.7078Z" fill="#343B86"/>
</svg>
